Coordinates
version=1
nRows=24
nColumns=24
inDegrees=yes

Units are S.I. units (second, meters, Newtons, ...)
Angles are in degrees.

endheader
time	pelvis_tilt	pelvis_list	pelvis_rotation	pelvis_tx	pelvis_ty	pelvis_tz	hip_flexion_r	hip_adduction_r	hip_rotation_r	knee_angle_r	ankle_angle_r	subtalar_angle_r	mtp_angle_r	hip_flexion_l	hip_adduction_l	hip_rotation_l	knee_angle_l	ankle_angle_l	subtalar_angle_l	mtp_angle_l	lumbar_extension	lumbar_bending	lumbar_rotation
      0.49600000	      2.72751209	      1.91604006	      2.85792830	     -0.78152734	      1.00925916	      0.27357215	     17.87835066	      0.08960100	     -4.86010939	     -1.84949694	      5.77271282	    -12.12749287	      1.30569013	    -16.40663921	      4.10985695	      5.73181866	     -8.27462444	     12.78679903	    -10.96517232	      0.20118505	    -12.77375539	     -3.65156328	     -0.99607524
      0.50016667	      2.76906908	      1.88161951	      2.90633731	     -0.77534567	      1.00880090	      0.27368115	     17.75635494	      0.19257396	     -4.51922230	     -2.04879772	      5.65474046	    -12.60482004	      1.87249537	    -16.45006530	      4.03048904	      5.50236197	     -9.03514569	     12.95095540	    -10.47860826	      0.24118517	    -12.73959219	     -3.57648699	     -1.22974777
      0.50433333	      2.82855481	      1.85305476	      2.92548018	     -0.76913191	      1.00837635	      0.27375394	     17.68489967	      0.28003746	     -4.37653393	     -2.43850294	      5.59915737	    -12.71409768	      8.55666645	    -16.52817128	      3.97625217	      5.35860854	     -9.76662102	     13.02417350	    -10.22658801	      1.16257647	    -12.72769743	     -3.48638360	     -1.27363211
      0.50850000	      2.89295181	      1.82437113	      2.94575487	     -0.76289429	      1.00800213	      0.27388027	     17.54827284	      0.38324661	     -4.02187744	     -2.76410967	      5.49143309	    -13.05558335	      8.57403940	    -16.57043566	      3.91568756	      5.19967393	    -10.57602477	     13.06785318	     -9.93372689	      1.21004468	    -12.71579338	     -3.40712541	     -1.26879171
      0.51266667	      2.95249792	      1.79491473	      2.95711461	     -0.75665140	      1.00764076	      0.27400744	     17.43703986	      0.48644225	     -3.69036523	     -3.17358621	      5.38065871	    -13.30628890	      8.60209707	    -16.56680032	      3.85487365	      5.00117174	    -11.46516223	     13.12833098	     -9.58763121	      1.28647837	    -12.70726923	     -3.32356305	     -1.33783081
      0.51683333	      3.01634044	      1.75302150	      2.97742084	     -0.75036887	      1.00731403	      0.27415017	     17.29976936	      0.60422637	     -3.35607347	     -3.57558609	      5.16857465	    -13.58817826	      8.64392120	    -16.51866276	      3.76528948	      4.72261511	    -12.45070543	     13.16176559	     -9.12096835	      1.40282767	    -12.68796772	     -3.22652048	     -1.38642220
      0.52100000	      3.07125425	      1.71853638	      3.00357491	     -0.74405456	      1.00700662	      0.27429827	     17.15069265	      0.71404008	     -2.99993036	     -3.96748030	      4.91619232	    -13.88527950	      8.70646478	    -16.40464814	      3.67291729	      4.38360475	    -13.54204220	     13.15705086	     -8.57362766	      1.58290735	    -12.64078696	     -3.14086470	     -1.43054545
      0.52516667	      3.18108220	      1.66000238	      3.03359683	     -0.73773864	      1.00680215	      0.27444340	     16.94542881	      0.84917872	     -2.69912418	     -4.38876373	      4.59635383	    -14.16371203	      8.86123623	    -16.31527624	      3.54013707	      4.01159225	    -14.69274311	     13.11778644	     -7.95334071	      2.04655107	    -12.67276504	     -3.00768466	     -1.43061446
      0.52933333	      3.19121411	      1.63963999	      3.03053549	     -0.73143495	      1.00647161	      0.27466079	     16.86225808	      0.95081131	     -2.29950227	     -4.85684131	      4.29832586	    -14.43340088	      8.93706826	    -16.07536562	      3.46408270	      3.65703825	    -15.92305938	     13.02609385	     -7.46800852	      2.29313619	    -12.57891343	     -2.95641589	     -1.50243147
      0.53350000	      3.27303892	      1.58268502	      3.05569438	     -0.72511463	      1.00627005	      0.27485011	     16.67942687	      1.08540207	     -1.98750286	     -5.29644198	      3.90970792	    -14.70117413	      9.02871784	    -15.84844637	      3.31293526	      3.20009821	    -17.27171562	     12.93494834	     -6.76419563	      2.61878228	    -12.56835591	     -2.83769867	     -1.52144315
      0.53766667	      3.36553584	      1.52652163	      3.05833739	     -0.71881384	      1.00610646	      0.27509119	     16.48180600	      1.22852564	     -1.61082636	     -5.73208374	      3.41667732	    -15.12898753	     10.83173916	    -15.60767240	      3.16164281	      2.75259734	    -18.64180191	     12.64361054	     -6.26193150	      9.48240462	    -12.57718795	     -2.72365507	     -1.42417443
      0.54183333	      3.40583148	      1.47576866	      3.08477100	     -0.71252016	      1.00589168	      0.27529239	     16.37848601	      1.34397091	     -1.41245873	     -6.26751238	      3.09374635	    -15.18099994	     10.82900503	    -15.23839870	      2.99619654	      2.26378101	    -20.15283734	     12.40988466	     -5.54022818	      9.56880732	    -12.51143157	     -2.62185995	     -1.55116725
      0.54600000	      3.47436213	      1.40880774	      3.09981102	     -0.70625558	      1.00573063	      0.27554487	     16.22837524	      1.48536782	     -1.15392457	     -6.76827098	      2.67396125	    -15.39977100	     10.83220950	    -14.85295120	      2.79927171	      1.75202380	    -21.74029864	     12.13275478	     -4.81945415	      9.72029789	    -12.48733120	     -2.49986070	     -1.54118971
      0.55016667	      3.55537680	      1.33934761	      3.10820518	     -0.70003884	      1.00560302	      0.27582380	     16.08515960	      1.62917176	     -0.92313534	     -7.31512741	      2.26786970	    -15.62630301	     10.84155165	    -14.43521267	      2.58656589	      1.22896823	    -23.39452586	     11.80919901	     -4.09906081	      9.97372146	    -12.49259976	     -2.37380885	     -1.52915947
      0.55433333	      3.62339008	      1.25925875	      3.11872635	     -0.69383978	      1.00547525	      0.27610937	     15.95784587	      1.77834711	     -0.73138936	     -7.86772424	      1.87085003	    -15.80145101	     10.85362453	    -13.95586506	      2.34651950	      0.69566725	    -25.12278255	     11.37720527	     -3.40484965	     10.29684866	    -12.47407747	     -2.23818368	     -1.50894678
      0.55850000	      3.68831196	      1.17316363	      3.12873433	     -0.68766772	      1.00536811	      0.27640386	     15.84098390	      1.92886393	     -0.57878695	     -8.43839601	      1.50093427	    -15.93252576	     10.86366947	    -13.43707239	      2.08721677	      0.17082126	    -26.89959561	     10.86119766	     -2.74448242	     10.65337604	    -12.44918602	     -2.09798161	     -1.48084240
      0.56266667	      3.77012061	      1.08607634	      3.12811929	     -0.68153388	      1.00531035	      0.27674914	     15.70423985	      2.08481359	     -0.40876037	     -9.00561229	      1.13914447	    -16.12354720	     11.01264140	    -12.90412621	      1.81013172	     -0.35750523	    -28.69006691	     10.10532289	     -2.23955508	     18.64610101	    -12.44925071	     -1.96665148	     -1.42839593
      0.56683333	      3.83738282	      0.97793096	      3.14477766	     -0.67543388	      1.00523937	      0.27703771	     15.60212312	      2.24278066	     -0.37426943	     -9.61351607	      0.88043669	    -16.08980598	     11.00831863	    -12.30914558	      1.50299047	     -0.84487968	    -30.57028952	      9.44045125	     -1.69798437	     18.69357328	    -12.42402992	     -1.79491215	     -1.39427872
      0.57100000	      3.90555418	      0.87414527	      3.14261843	     -0.66941996	      1.00517829	      0.27737792	     15.52225328	      2.40126432	     -0.31937875	    -10.26767569	      0.64731121	    -16.13878524	     10.99765848	    -11.68300059	      1.19197240	     -1.32772274	    -32.48060274	      8.72373835	     -1.16693848	     18.78857673	    -12.42391515	     -1.63584445	     -1.34042054
      0.57516667	      3.98101195	      0.75311032	      3.14661758	     -0.66342161	      1.00514518	      0.27772355	     15.42145097	      2.57348525	     -0.29204436	    -10.89667276	      0.46534144	    -16.14008505	     10.98403120	    -11.04048844	      0.85156519	     -1.77683307	    -34.41356708	      7.90536977	     -0.73138127	     18.89465218	    -12.42405018	     -1.47137668	     -1.27564397
      0.57933333	      4.05797938	      0.63354259	      3.13398370	     -0.65752379	      1.00511356	      0.27808792	     15.34862188	      2.74312537	     -0.28509610	    -11.58171953	      0.32677195	    -16.14383914	     10.96107172	    -10.37021368	      0.51028758	     -2.20816758	    -36.36892178	      7.09113948	     -0.32293752	     19.04473910	    -12.44638679	     -1.29085477	     -1.19478558
      0.58350000	      4.12682383	      0.50809507	      3.13037071	     -0.65164349	      1.00511128	      0.27844505	     15.26292515	      2.91300956	     -0.30503691	    -12.22484293	      0.24511138	    -16.10395866	     10.93526950	     -9.67175891	      0.15615955	     -2.60365513	    -38.32654847	      6.19807498	     -0.02889607	     19.18666324	    -12.45046751	     -1.12018082	     -1.11370802
      0.58766667	      4.19877937	      0.37963654	      3.11656065	     -0.64583423	      1.00511642	      0.27881830	     15.18365816	      3.08499871	     -0.34074989	    -12.88552506	      0.21666313	    -16.04559619	     10.90219667	     -8.96245423	     -0.19934729	     -2.96288704	    -40.28240526	      5.31386007	      0.20459477	     19.33424201	    -12.47130023	     -0.93633361	     -1.02080217
      0.59183333	      4.26931319	      0.24824899	      3.10237689	     -0.64006796	      1.00515193	      0.27918478	     15.09540429	      3.25692066	     -0.39212819	    -13.52662512	      0.23674324	    -15.96122258	     10.86525865	     -8.23964661	     -0.55537639	     -3.28370887	    -42.21938540	      4.41879771	      0.34120451	     19.46254752	    -12.49289933	     -0.75286323	     -0.92233300
